<?xml version="1.0" encoding="UTF-8"?>
<svg xmlns="http://www.w3.org/2000/svg" width="200" height="160" viewBox="0 0 200 160">
  <rect x="15" y="40" width="75" height="95" rx="8" fill="#9ca3af" stroke="#6b7280" stroke-width="2"/>
  <rect x="100" y="40" width="75" height="95" rx="8" fill="#9ca3af" stroke="#6b7280" stroke-width="2"/>
  <rect x="10" y="35" width="170" height="10" rx="3" fill="#6b7280"/>
  <rect x="10" y="135" width="170" height="10" rx="3" fill="#6b7280"/>
  <line x1="25" y1="55" x2="80" y2="55" stroke="#6b7280" stroke-width="1.5"/>
  <line x1="110" y1="55" x2="165" y2="55" stroke="#6b7280" stroke-width="1.5"/>
  <line x1="25" y1="66" x2="80" y2="66" stroke="#6b7280" stroke-width="1.5"/>
  <line x1="110" y1="66" x2="165" y2="66" stroke="#6b7280" stroke-width="1.5"/>
  <line x1="25" y1="77" x2="80" y2="77" stroke="#6b7280" stroke-width="1.5"/>
  <line x1="110" y1="77" x2="165" y2="77" stroke="#6b7280" stroke-width="1.5"/>
  <line x1="25" y1="88" x2="80" y2="88" stroke="#6b7280" stroke-width="1.5"/>
  <line x1="110" y1="88" x2="165" y2="88" stroke="#6b7280" stroke-width="1.5"/>
  <line x1="25" y1="99" x2="80" y2="99" stroke="#6b7280" stroke-width="1.5"/>
  <line x1="110" y1="99" x2="165" y2="99" stroke="#6b7280" stroke-width="1.5"/>
  <line x1="25" y1="110" x2="80" y2="110" stroke="#6b7280" stroke-width="1.5"/>
  <line x1="110" y1="110" x2="165" y2="110" stroke="#6b7280" stroke-width="1.5"/>
  <line x1="25" y1="121" x2="80" y2="121" stroke="#6b7280" stroke-width="1.5"/>
  <line x1="110" y1="121" x2="165" y2="121" stroke="#6b7280" stroke-width="1.5"/>
  <rect x="40" y="20" width="15" height="18" rx="2" fill="#6b7280"/>
  <rect x="135" y="20" width="15" height="18" rx="2" fill="#6b7280"/>
  <rect x="20" y="145" width="25" height="12" rx="3" fill="#4b5563"/>
  <rect x="65" y="145" width="25" height="12" rx="3" fill="#4b5563"/>
  <rect x="105" y="145" width="25" height="12" rx="3" fill="#4b5563"/>
  <rect x="150" y="145" width="25" height="12" rx="3" fill="#4b5563"/>
</svg>
